<?xml version="1.0" standalone="no"?><!DOCTYPE svg PUBLIC "-//W3C//DTD SVG 1.1//EN" "http://www.w3.org/Graphics/SVG/1.1/DTD/svg11.dtd"><svg t="1713064743843" class="icon" viewBox="0 0 1024 1024" version="1.1" xmlns="http://www.w3.org/2000/svg" p-id="6839" xmlns:xlink="http://www.w3.org/1999/xlink" width="200" height="200"><path d="M913.14176 15.94254222H110.85255111c-59.09390222 0-109.23690667 50.14300445-109.23690666 111.02890667v82.37624889h1018.97557333v-82.37624889c1.79313778-60.88590222-46.56241778-111.02890667-107.44945778-111.02890667zM3.40764445 297.10222222v599.92632889c0 60.88704 48.35100445 111.03004445 109.23690666 111.03004444h800.49834667c59.09959111 0 109.24145778-50.14300445 109.24145777-111.03004444V297.10222222H3.40764445z m340.25472 474.56483556c14.32462222 14.32462222 14.32462222 35.81952 0 50.14300444-14.33031111 14.32234667-35.81838222 14.32234667-48.3487289 0l-125.36035555-130.73066667c-14.33031111-14.32576-14.33031111-35.81496889 0-50.14300444l125.36035555-130.72611556c14.32234667-14.33031111 35.81383111-14.33031111 48.3487289 0 14.32462222 14.32462222 14.32462222 35.81383111 0 50.14186667l-102.07687112 105.65973333 102.07687112 105.65518223z m254.29219555-265.04305778L510.208 843.29813333c-5.37258667 19.70289778-23.28234667 30.44693333-42.97841778 25.07434667-19.70289778-7.16458667-30.44693333-26.86634667-25.07434667-44.77155555l87.75452445-336.67413334c5.37258667-19.70062222 23.27552-30.44579555 42.97728-25.07320889 17.90862222 5.37372445 28.65493333 25.07434667 25.06752 44.77041778z m286.53454222 186.24739555l-125.35580444 130.73066667c-14.32917333 14.32576-35.81838222 14.32576-48.35328 0-14.32462222-14.32917333-14.32462222-35.81838222 0-50.14186667l102.07687111-105.65745777-102.07687111-105.66314667c-14.32462222-14.32462222-14.32462222-35.81155555 0-50.14186666 14.32917333-14.32462222 35.81610667-14.32462222 48.35328 0L884.48910222 642.73066667c14.32803555 14.32120889 14.32803555 35.81610667 0 50.14072888z" fill="#16c2c2" p-id="6840"></path></svg>